<mxfile host="app.diagrams.net" modified="2023-10-22T23:40:22.539Z" agent="Mozilla/5.0 (Windows NT 10.0; Win64; x64; rv:109.0) Gecko/20100101 Firefox/118.0" etag="ZkmOE4Qb_qum8-hoItrL" version="22.0.6" type="github">
  <diagram name="Page-1" id="5f0bae14-7c28-e335-631c-24af17079c00">
    <mxGraphModel dx="2074" dy="1180" grid="1" gridSize="10" guides="1" tooltips="1" connect="1" arrows="1" fold="1" page="1" pageScale="1" pageWidth="1100" pageHeight="850" background="none" math="0" shadow="0">
      <root>
        <mxCell id="0" />
        <mxCell id="1" parent="0" />
        <mxCell id="39150e848f15840c-1" value="&lt;div&gt;Front-end&lt;/div&gt;&lt;div&gt;&lt;br&gt;&lt;/div&gt;" style="verticalAlign=top;align=left;spacingTop=8;spacingLeft=2;spacingRight=12;shape=cube;size=10;direction=south;fontStyle=4;html=1;rounded=1;shadow=0;comic=0;labelBackgroundColor=none;strokeWidth=2;fontFamily=Verdana;fontSize=12;fillColor=#f8cecc;strokeColor=#b85450;" parent="1" vertex="1">
          <mxGeometry x="630" y="140" width="360" height="210" as="geometry" />
        </mxCell>
        <mxCell id="39150e848f15840c-2" value="Back-end" style="verticalAlign=top;align=left;spacingTop=8;spacingLeft=2;spacingRight=12;shape=cube;size=10;direction=south;fontStyle=4;html=1;rounded=1;shadow=0;comic=0;labelBackgroundColor=none;strokeWidth=1;fontFamily=Verdana;fontSize=12;fillColor=#dae8fc;strokeColor=#6c8ebf;" parent="1" vertex="1">
          <mxGeometry x="20" y="420" width="1020" height="580" as="geometry" />
        </mxCell>
        <mxCell id="l8llONEPsYuGqnBZmxAW-3" value="APIKeyGenerator" style="swimlane;fontStyle=0;childLayout=stackLayout;horizontal=1;startSize=30;horizontalStack=0;resizeParent=1;resizeParentMax=0;resizeLast=0;collapsible=1;marginBottom=0;whiteSpace=wrap;html=1;rounded=1;labelBackgroundColor=none;" vertex="1" parent="1">
          <mxGeometry x="40" y="660" width="180" height="90" as="geometry" />
        </mxCell>
        <mxCell id="l8llONEPsYuGqnBZmxAW-4" value="generateAPIKey(String email)" style="text;strokeColor=none;fillColor=none;align=left;verticalAlign=middle;spacingLeft=4;spacingRight=4;overflow=hidden;points=[[0,0.5],[1,0.5]];portConstraint=eastwest;rotatable=0;whiteSpace=wrap;html=1;rounded=1;labelBackgroundColor=none;" vertex="1" parent="l8llONEPsYuGqnBZmxAW-3">
          <mxGeometry y="30" width="180" height="60" as="geometry" />
        </mxCell>
        <mxCell id="l8llONEPsYuGqnBZmxAW-7" value="UserAccountRepository" style="swimlane;fontStyle=0;childLayout=stackLayout;horizontal=1;startSize=30;horizontalStack=0;resizeParent=1;resizeParentMax=0;resizeLast=0;collapsible=1;marginBottom=0;whiteSpace=wrap;html=1;rounded=1;labelBackgroundColor=none;" vertex="1" parent="1">
          <mxGeometry x="280" y="870" width="180" height="110" as="geometry" />
        </mxCell>
        <mxCell id="l8llONEPsYuGqnBZmxAW-8" value="findByEmail(String email)" style="text;strokeColor=none;fillColor=none;align=left;verticalAlign=middle;spacingLeft=4;spacingRight=4;overflow=hidden;points=[[0,0.5],[1,0.5]];portConstraint=eastwest;rotatable=0;whiteSpace=wrap;html=1;rounded=1;labelBackgroundColor=none;" vertex="1" parent="l8llONEPsYuGqnBZmxAW-7">
          <mxGeometry y="30" width="180" height="30" as="geometry" />
        </mxCell>
        <mxCell id="l8llONEPsYuGqnBZmxAW-10" value="save(UserAccountEntity entity)" style="text;strokeColor=none;fillColor=none;align=left;verticalAlign=middle;spacingLeft=4;spacingRight=4;overflow=hidden;points=[[0,0.5],[1,0.5]];portConstraint=eastwest;rotatable=0;whiteSpace=wrap;html=1;rounded=1;labelBackgroundColor=none;" vertex="1" parent="l8llONEPsYuGqnBZmxAW-7">
          <mxGeometry y="60" width="180" height="50" as="geometry" />
        </mxCell>
        <mxCell id="l8llONEPsYuGqnBZmxAW-13" value="API Request" style="verticalAlign=top;align=left;spacingTop=8;spacingLeft=2;spacingRight=12;shape=cube;size=10;direction=south;fontStyle=4;html=1;rounded=1;shadow=0;comic=0;labelBackgroundColor=none;strokeWidth=2;fontFamily=Verdana;fontSize=12;fillColor=#d5e8d4;strokeColor=#82b366;" vertex="1" parent="1">
          <mxGeometry x="170" y="140" width="360" height="210" as="geometry" />
        </mxCell>
        <mxCell id="l8llONEPsYuGqnBZmxAW-14" value="Actor" style="shape=umlActor;verticalLabelPosition=bottom;verticalAlign=top;html=1;outlineConnect=0;rounded=1;labelBackgroundColor=none;" vertex="1" parent="1">
          <mxGeometry x="327.5" y="20" width="45" height="80" as="geometry" />
        </mxCell>
        <mxCell id="l8llONEPsYuGqnBZmxAW-15" value="Actor" style="shape=umlActor;verticalLabelPosition=bottom;verticalAlign=top;html=1;outlineConnect=0;rounded=1;labelBackgroundColor=none;" vertex="1" parent="1">
          <mxGeometry x="787.5" y="30" width="45" height="80" as="geometry" />
        </mxCell>
        <mxCell id="l8llONEPsYuGqnBZmxAW-71" style="edgeStyle=orthogonalEdgeStyle;rounded=0;orthogonalLoop=1;jettySize=auto;html=1;entryX=0.25;entryY=0;entryDx=0;entryDy=0;fillColor=#d5e8d4;strokeColor=#82b366;strokeWidth=2;" edge="1" parent="1" source="l8llONEPsYuGqnBZmxAW-16" target="l8llONEPsYuGqnBZmxAW-18">
          <mxGeometry relative="1" as="geometry">
            <Array as="points">
              <mxPoint x="130" y="223" />
              <mxPoint x="130" y="400" />
              <mxPoint x="178" y="400" />
            </Array>
          </mxGeometry>
        </mxCell>
        <mxCell id="l8llONEPsYuGqnBZmxAW-16" value="CreateAccount" style="shape=step;perimeter=stepPerimeter;whiteSpace=wrap;html=1;fixedSize=1;rounded=1;labelBackgroundColor=none;" vertex="1" parent="1">
          <mxGeometry x="190" y="200" width="130" height="45" as="geometry" />
        </mxCell>
        <mxCell id="l8llONEPsYuGqnBZmxAW-78" style="edgeStyle=orthogonalEdgeStyle;rounded=0;orthogonalLoop=1;jettySize=auto;html=1;exitX=1;exitY=0.5;exitDx=0;exitDy=0;fillColor=#d5e8d4;strokeColor=#82b366;strokeWidth=2;" edge="1" parent="1" source="l8llONEPsYuGqnBZmxAW-17">
          <mxGeometry relative="1" as="geometry">
            <mxPoint x="320" y="450" as="targetPoint" />
            <Array as="points">
              <mxPoint x="321" y="223" />
            </Array>
          </mxGeometry>
        </mxCell>
        <mxCell id="l8llONEPsYuGqnBZmxAW-17" value="GetAPIKey" style="shape=step;perimeter=stepPerimeter;whiteSpace=wrap;html=1;fixedSize=1;rounded=1;labelBackgroundColor=none;" vertex="1" parent="1">
          <mxGeometry x="360" y="200" width="130" height="45" as="geometry" />
        </mxCell>
        <mxCell id="l8llONEPsYuGqnBZmxAW-18" value="UserAccountController" style="swimlane;fontStyle=0;childLayout=stackLayout;horizontal=1;startSize=30;horizontalStack=0;resizeParent=1;resizeParentMax=0;resizeLast=0;collapsible=1;marginBottom=0;whiteSpace=wrap;html=1;rounded=1;labelBackgroundColor=none;" vertex="1" parent="1">
          <mxGeometry x="107.5" y="450" width="282.5" height="140" as="geometry" />
        </mxCell>
        <mxCell id="l8llONEPsYuGqnBZmxAW-19" value="createAccount(UserAccountResource resource)" style="text;strokeColor=none;fillColor=none;align=left;verticalAlign=middle;spacingLeft=4;spacingRight=4;overflow=hidden;points=[[0,0.5],[1,0.5]];portConstraint=eastwest;rotatable=0;whiteSpace=wrap;html=1;rounded=1;labelBackgroundColor=none;" vertex="1" parent="l8llONEPsYuGqnBZmxAW-18">
          <mxGeometry y="30" width="282.5" height="30" as="geometry" />
        </mxCell>
        <mxCell id="l8llONEPsYuGqnBZmxAW-20" value="updateAccount(UserAccount resource)" style="text;strokeColor=none;fillColor=none;align=left;verticalAlign=middle;spacingLeft=4;spacingRight=4;overflow=hidden;points=[[0,0.5],[1,0.5]];portConstraint=eastwest;rotatable=0;whiteSpace=wrap;html=1;rounded=1;labelBackgroundColor=none;" vertex="1" parent="l8llONEPsYuGqnBZmxAW-18">
          <mxGeometry y="60" width="282.5" height="40" as="geometry" />
        </mxCell>
        <mxCell id="l8llONEPsYuGqnBZmxAW-53" value="generateAPIKey(UserAccountResource resource)" style="text;strokeColor=none;fillColor=none;align=left;verticalAlign=middle;spacingLeft=4;spacingRight=4;overflow=hidden;points=[[0,0.5],[1,0.5]];portConstraint=eastwest;rotatable=0;whiteSpace=wrap;html=1;rounded=1;labelBackgroundColor=none;" vertex="1" parent="l8llONEPsYuGqnBZmxAW-18">
          <mxGeometry y="100" width="282.5" height="40" as="geometry" />
        </mxCell>
        <object label="UserAccountService" id="l8llONEPsYuGqnBZmxAW-26">
          <mxCell style="swimlane;fontStyle=0;childLayout=stackLayout;horizontal=1;startSize=30;horizontalStack=0;resizeParent=1;resizeParentMax=0;resizeLast=0;collapsible=1;marginBottom=0;whiteSpace=wrap;html=1;rounded=1;labelBackgroundColor=none;" vertex="1" parent="1">
            <mxGeometry x="270" y="660" width="200" height="160" as="geometry" />
          </mxCell>
        </object>
        <mxCell id="l8llONEPsYuGqnBZmxAW-27" value="findByEmail(String email)" style="text;strokeColor=none;fillColor=none;align=left;verticalAlign=middle;spacingLeft=4;spacingRight=4;overflow=hidden;points=[[0,0.5],[1,0.5]];portConstraint=eastwest;rotatable=0;whiteSpace=wrap;html=1;rounded=1;labelBackgroundColor=none;" vertex="1" parent="l8llONEPsYuGqnBZmxAW-26">
          <mxGeometry y="30" width="200" height="30" as="geometry" />
        </mxCell>
        <mxCell id="l8llONEPsYuGqnBZmxAW-28" value="&lt;div&gt;save(UserAccountEntity entity)&lt;/div&gt;" style="text;strokeColor=none;fillColor=none;align=left;verticalAlign=middle;spacingLeft=4;spacingRight=4;overflow=hidden;points=[[0,0.5],[1,0.5]];portConstraint=eastwest;rotatable=0;whiteSpace=wrap;html=1;rounded=1;labelBackgroundColor=none;" vertex="1" parent="l8llONEPsYuGqnBZmxAW-26">
          <mxGeometry y="60" width="200" height="50" as="geometry" />
        </mxCell>
        <mxCell id="l8llONEPsYuGqnBZmxAW-29" value="updateAccountAPIKey(String key)" style="text;strokeColor=none;fillColor=none;align=left;verticalAlign=middle;spacingLeft=4;spacingRight=4;overflow=hidden;points=[[0,0.5],[1,0.5]];portConstraint=eastwest;rotatable=0;whiteSpace=wrap;html=1;rounded=1;labelBackgroundColor=none;" vertex="1" parent="l8llONEPsYuGqnBZmxAW-26">
          <mxGeometry y="110" width="200" height="50" as="geometry" />
        </mxCell>
        <mxCell id="l8llONEPsYuGqnBZmxAW-37" value="UserTaskController" style="swimlane;fontStyle=0;childLayout=stackLayout;horizontal=1;startSize=30;horizontalStack=0;resizeParent=1;resizeParentMax=0;resizeLast=0;collapsible=1;marginBottom=0;whiteSpace=wrap;html=1;rounded=1;labelBackgroundColor=none;" vertex="1" parent="1">
          <mxGeometry x="740" y="450" width="220" height="120" as="geometry" />
        </mxCell>
        <mxCell id="l8llONEPsYuGqnBZmxAW-38" value="createTask(TaskResource task)" style="text;strokeColor=none;fillColor=none;align=left;verticalAlign=middle;spacingLeft=4;spacingRight=4;overflow=hidden;points=[[0,0.5],[1,0.5]];portConstraint=eastwest;rotatable=0;whiteSpace=wrap;html=1;rounded=1;labelBackgroundColor=none;" vertex="1" parent="l8llONEPsYuGqnBZmxAW-37">
          <mxGeometry y="30" width="220" height="30" as="geometry" />
        </mxCell>
        <mxCell id="l8llONEPsYuGqnBZmxAW-39" value="updateTask(TaskResource task)" style="text;strokeColor=none;fillColor=none;align=left;verticalAlign=middle;spacingLeft=4;spacingRight=4;overflow=hidden;points=[[0,0.5],[1,0.5]];portConstraint=eastwest;rotatable=0;whiteSpace=wrap;html=1;rounded=1;labelBackgroundColor=none;" vertex="1" parent="l8llONEPsYuGqnBZmxAW-37">
          <mxGeometry y="60" width="220" height="30" as="geometry" />
        </mxCell>
        <mxCell id="l8llONEPsYuGqnBZmxAW-40" value="deleteTask(TaskResource task)" style="text;strokeColor=none;fillColor=none;align=left;verticalAlign=middle;spacingLeft=4;spacingRight=4;overflow=hidden;points=[[0,0.5],[1,0.5]];portConstraint=eastwest;rotatable=0;whiteSpace=wrap;html=1;rounded=1;labelBackgroundColor=none;" vertex="1" parent="l8llONEPsYuGqnBZmxAW-37">
          <mxGeometry y="90" width="220" height="30" as="geometry" />
        </mxCell>
        <mxCell id="l8llONEPsYuGqnBZmxAW-103" style="edgeStyle=orthogonalEdgeStyle;rounded=0;orthogonalLoop=1;jettySize=auto;html=1;" edge="1" parent="1" source="l8llONEPsYuGqnBZmxAW-41" target="l8llONEPsYuGqnBZmxAW-87">
          <mxGeometry relative="1" as="geometry" />
        </mxCell>
        <mxCell id="l8llONEPsYuGqnBZmxAW-41" value="UserScheduleController" style="swimlane;fontStyle=0;childLayout=stackLayout;horizontal=1;startSize=30;horizontalStack=0;resizeParent=1;resizeParentMax=0;resizeLast=0;collapsible=1;marginBottom=0;whiteSpace=wrap;html=1;rounded=1;labelBackgroundColor=none;" vertex="1" parent="1">
          <mxGeometry x="440" y="450" width="260" height="120" as="geometry" />
        </mxCell>
        <mxCell id="l8llONEPsYuGqnBZmxAW-44" value="getScheduleByDay(DayResource day)" style="text;strokeColor=none;fillColor=none;align=left;verticalAlign=middle;spacingLeft=4;spacingRight=4;overflow=hidden;points=[[0,0.5],[1,0.5]];portConstraint=eastwest;rotatable=0;whiteSpace=wrap;html=1;rounded=1;labelBackgroundColor=none;" vertex="1" parent="l8llONEPsYuGqnBZmxAW-41">
          <mxGeometry y="30" width="260" height="30" as="geometry" />
        </mxCell>
        <mxCell id="l8llONEPsYuGqnBZmxAW-42" value="getScheduleByWeek(WeekResource week)" style="text;strokeColor=none;fillColor=none;align=left;verticalAlign=middle;spacingLeft=4;spacingRight=4;overflow=hidden;points=[[0,0.5],[1,0.5]];portConstraint=eastwest;rotatable=0;whiteSpace=wrap;html=1;rounded=1;labelBackgroundColor=none;" vertex="1" parent="l8llONEPsYuGqnBZmxAW-41">
          <mxGeometry y="60" width="260" height="30" as="geometry" />
        </mxCell>
        <mxCell id="l8llONEPsYuGqnBZmxAW-43" value="getScheduleByMonth(MonthResource month)" style="text;strokeColor=none;fillColor=none;align=left;verticalAlign=middle;spacingLeft=4;spacingRight=4;overflow=hidden;points=[[0,0.5],[1,0.5]];portConstraint=eastwest;rotatable=0;whiteSpace=wrap;html=1;rounded=1;labelBackgroundColor=none;" vertex="1" parent="l8llONEPsYuGqnBZmxAW-41">
          <mxGeometry y="90" width="260" height="30" as="geometry" />
        </mxCell>
        <mxCell id="l8llONEPsYuGqnBZmxAW-47" value="Requires API Key" style="icon;html=1;image=img/clipart/Gear_128x128.png;rounded=1;labelBackgroundColor=none;" vertex="1" parent="1">
          <mxGeometry x="700" y="420" width="10" height="30" as="geometry" />
        </mxCell>
        <mxCell id="l8llONEPsYuGqnBZmxAW-52" value="Requires API Key" style="icon;html=1;image=img/clipart/Gear_128x128.png;rounded=1;labelBackgroundColor=none;" vertex="1" parent="1">
          <mxGeometry x="960" y="420" width="10" height="30" as="geometry" />
        </mxCell>
        <mxCell id="l8llONEPsYuGqnBZmxAW-54" style="edgeStyle=orthogonalEdgeStyle;rounded=0;orthogonalLoop=1;jettySize=auto;html=1;entryX=0;entryY=0.5;entryDx=0;entryDy=0;" edge="1" parent="1" source="l8llONEPsYuGqnBZmxAW-53" target="l8llONEPsYuGqnBZmxAW-4">
          <mxGeometry relative="1" as="geometry">
            <Array as="points">
              <mxPoint x="30" y="570" />
              <mxPoint x="30" y="720" />
            </Array>
          </mxGeometry>
        </mxCell>
        <mxCell id="l8llONEPsYuGqnBZmxAW-57" style="edgeStyle=orthogonalEdgeStyle;rounded=0;orthogonalLoop=1;jettySize=auto;html=1;entryX=0;entryY=0.5;entryDx=0;entryDy=0;" edge="1" parent="1" source="l8llONEPsYuGqnBZmxAW-19" target="l8llONEPsYuGqnBZmxAW-28">
          <mxGeometry relative="1" as="geometry">
            <Array as="points">
              <mxPoint x="420" y="495" />
              <mxPoint x="420" y="615" />
              <mxPoint x="250" y="615" />
              <mxPoint x="250" y="745" />
            </Array>
          </mxGeometry>
        </mxCell>
        <mxCell id="l8llONEPsYuGqnBZmxAW-58" style="edgeStyle=orthogonalEdgeStyle;rounded=0;orthogonalLoop=1;jettySize=auto;html=1;entryX=0;entryY=0.5;entryDx=0;entryDy=0;" edge="1" parent="1" source="l8llONEPsYuGqnBZmxAW-20" target="l8llONEPsYuGqnBZmxAW-29">
          <mxGeometry relative="1" as="geometry">
            <Array as="points">
              <mxPoint x="410" y="530" />
              <mxPoint x="410" y="600" />
              <mxPoint x="240" y="600" />
              <mxPoint x="240" y="795" />
            </Array>
          </mxGeometry>
        </mxCell>
        <mxCell id="l8llONEPsYuGqnBZmxAW-59" style="edgeStyle=orthogonalEdgeStyle;rounded=0;orthogonalLoop=1;jettySize=auto;html=1;entryX=1;entryY=0.5;entryDx=0;entryDy=0;exitX=1;exitY=0.5;exitDx=0;exitDy=0;" edge="1" parent="1" source="l8llONEPsYuGqnBZmxAW-28" target="l8llONEPsYuGqnBZmxAW-10">
          <mxGeometry relative="1" as="geometry" />
        </mxCell>
        <mxCell id="l8llONEPsYuGqnBZmxAW-60" style="edgeStyle=orthogonalEdgeStyle;rounded=0;orthogonalLoop=1;jettySize=auto;html=1;" edge="1" parent="1" source="l8llONEPsYuGqnBZmxAW-4" target="l8llONEPsYuGqnBZmxAW-29">
          <mxGeometry relative="1" as="geometry">
            <Array as="points">
              <mxPoint x="240" y="720" />
              <mxPoint x="240" y="795" />
            </Array>
          </mxGeometry>
        </mxCell>
        <mxCell id="l8llONEPsYuGqnBZmxAW-63" style="edgeStyle=orthogonalEdgeStyle;rounded=0;orthogonalLoop=1;jettySize=auto;html=1;entryX=1;entryY=0.5;entryDx=0;entryDy=0;exitX=1;exitY=0.5;exitDx=0;exitDy=0;" edge="1" parent="1" source="l8llONEPsYuGqnBZmxAW-29" target="l8llONEPsYuGqnBZmxAW-10">
          <mxGeometry relative="1" as="geometry" />
        </mxCell>
        <mxCell id="l8llONEPsYuGqnBZmxAW-64" style="edgeStyle=orthogonalEdgeStyle;rounded=0;orthogonalLoop=1;jettySize=auto;html=1;entryX=1;entryY=0.5;entryDx=0;entryDy=0;exitX=1;exitY=0.5;exitDx=0;exitDy=0;" edge="1" parent="1" source="l8llONEPsYuGqnBZmxAW-27" target="l8llONEPsYuGqnBZmxAW-8">
          <mxGeometry relative="1" as="geometry">
            <Array as="points">
              <mxPoint x="510" y="705" />
              <mxPoint x="510" y="915" />
            </Array>
          </mxGeometry>
        </mxCell>
        <mxCell id="l8llONEPsYuGqnBZmxAW-65" value="CreateAccount" style="shape=step;perimeter=stepPerimeter;whiteSpace=wrap;html=1;fixedSize=1;rounded=1;labelBackgroundColor=none;" vertex="1" parent="1">
          <mxGeometry x="657.5" y="200" width="130" height="45" as="geometry" />
        </mxCell>
        <mxCell id="l8llONEPsYuGqnBZmxAW-77" style="edgeStyle=orthogonalEdgeStyle;rounded=0;orthogonalLoop=1;jettySize=auto;html=1;fillColor=#f8cecc;strokeColor=#b85450;strokeWidth=2;" edge="1" parent="1" source="l8llONEPsYuGqnBZmxAW-66">
          <mxGeometry relative="1" as="geometry">
            <mxPoint x="330" y="450" as="targetPoint" />
            <Array as="points">
              <mxPoint x="885" y="400" />
              <mxPoint x="330" y="400" />
              <mxPoint x="330" y="450" />
            </Array>
          </mxGeometry>
        </mxCell>
        <mxCell id="l8llONEPsYuGqnBZmxAW-66" value="Login" style="shape=step;perimeter=stepPerimeter;whiteSpace=wrap;html=1;fixedSize=1;rounded=1;labelBackgroundColor=none;" vertex="1" parent="1">
          <mxGeometry x="820" y="200" width="130" height="45" as="geometry" />
        </mxCell>
        <mxCell id="l8llONEPsYuGqnBZmxAW-75" style="edgeStyle=orthogonalEdgeStyle;rounded=0;orthogonalLoop=1;jettySize=auto;html=1;fillColor=#f8cecc;strokeColor=#b85450;strokeWidth=2;" edge="1" parent="1" source="l8llONEPsYuGqnBZmxAW-67">
          <mxGeometry relative="1" as="geometry">
            <mxPoint x="885" y="450" as="targetPoint" />
            <Array as="points">
              <mxPoint x="885" y="440" />
              <mxPoint x="885" y="440" />
            </Array>
          </mxGeometry>
        </mxCell>
        <mxCell id="l8llONEPsYuGqnBZmxAW-67" value="CreateTask" style="shape=step;perimeter=stepPerimeter;whiteSpace=wrap;html=1;fixedSize=1;rounded=1;labelBackgroundColor=none;" vertex="1" parent="1">
          <mxGeometry x="820" y="270" width="130" height="45" as="geometry" />
        </mxCell>
        <mxCell id="l8llONEPsYuGqnBZmxAW-73" style="edgeStyle=orthogonalEdgeStyle;rounded=0;orthogonalLoop=1;jettySize=auto;html=1;fillColor=#f8cecc;strokeColor=#b85450;strokeWidth=2;" edge="1" parent="1" source="l8llONEPsYuGqnBZmxAW-68">
          <mxGeometry relative="1" as="geometry">
            <mxPoint x="590" y="450" as="targetPoint" />
            <Array as="points">
              <mxPoint x="723" y="380" />
              <mxPoint x="590" y="380" />
              <mxPoint x="590" y="450" />
            </Array>
          </mxGeometry>
        </mxCell>
        <mxCell id="l8llONEPsYuGqnBZmxAW-68" value="GetSchedule" style="shape=step;perimeter=stepPerimeter;whiteSpace=wrap;html=1;fixedSize=1;rounded=1;labelBackgroundColor=none;" vertex="1" parent="1">
          <mxGeometry x="657.5" y="270" width="130" height="45" as="geometry" />
        </mxCell>
        <mxCell id="l8llONEPsYuGqnBZmxAW-74" style="edgeStyle=orthogonalEdgeStyle;rounded=0;orthogonalLoop=1;jettySize=auto;html=1;fillColor=#d5e8d4;strokeColor=#82b366;strokeWidth=2;" edge="1" parent="1" source="l8llONEPsYuGqnBZmxAW-69" target="l8llONEPsYuGqnBZmxAW-37">
          <mxGeometry relative="1" as="geometry">
            <Array as="points">
              <mxPoint x="425" y="370" />
              <mxPoint x="850" y="370" />
            </Array>
          </mxGeometry>
        </mxCell>
        <mxCell id="l8llONEPsYuGqnBZmxAW-69" value="CreateTask" style="shape=step;perimeter=stepPerimeter;whiteSpace=wrap;html=1;fixedSize=1;rounded=1;labelBackgroundColor=none;" vertex="1" parent="1">
          <mxGeometry x="360" y="270" width="130" height="45" as="geometry" />
        </mxCell>
        <mxCell id="l8llONEPsYuGqnBZmxAW-72" style="edgeStyle=orthogonalEdgeStyle;rounded=0;orthogonalLoop=1;jettySize=auto;html=1;fillColor=#d5e8d4;strokeColor=#82b366;strokeWidth=2;" edge="1" parent="1" source="l8llONEPsYuGqnBZmxAW-70" target="l8llONEPsYuGqnBZmxAW-41">
          <mxGeometry relative="1" as="geometry">
            <Array as="points">
              <mxPoint x="255" y="380" />
              <mxPoint x="570" y="380" />
            </Array>
          </mxGeometry>
        </mxCell>
        <mxCell id="l8llONEPsYuGqnBZmxAW-70" value="GetSchedule" style="shape=step;perimeter=stepPerimeter;whiteSpace=wrap;html=1;fixedSize=1;rounded=1;labelBackgroundColor=none;" vertex="1" parent="1">
          <mxGeometry x="190" y="270" width="130" height="45" as="geometry" />
        </mxCell>
        <mxCell id="l8llONEPsYuGqnBZmxAW-80" style="edgeStyle=orthogonalEdgeStyle;rounded=0;orthogonalLoop=1;jettySize=auto;html=1;entryX=0.303;entryY=-0.007;entryDx=0;entryDy=0;entryPerimeter=0;fillColor=#f8cecc;strokeColor=#b85450;strokeWidth=2;exitX=0;exitY=0.5;exitDx=0;exitDy=0;" edge="1" parent="1" source="l8llONEPsYuGqnBZmxAW-65" target="l8llONEPsYuGqnBZmxAW-18">
          <mxGeometry relative="1" as="geometry">
            <Array as="points">
              <mxPoint x="650" y="223" />
              <mxPoint x="650" y="400" />
              <mxPoint x="193" y="400" />
            </Array>
          </mxGeometry>
        </mxCell>
        <mxCell id="l8llONEPsYuGqnBZmxAW-87" value="&lt;div&gt;UserScheduleService&lt;/div&gt;" style="swimlane;fontStyle=0;childLayout=stackLayout;horizontal=1;startSize=30;horizontalStack=0;resizeParent=1;resizeParentMax=0;resizeLast=0;collapsible=1;marginBottom=0;whiteSpace=wrap;html=1;rounded=1;labelBackgroundColor=none;" vertex="1" parent="1">
          <mxGeometry x="530" y="660" width="260" height="120" as="geometry" />
        </mxCell>
        <mxCell id="l8llONEPsYuGqnBZmxAW-88" value="getScheduleByDay(DayResource day)" style="text;strokeColor=none;fillColor=none;align=left;verticalAlign=middle;spacingLeft=4;spacingRight=4;overflow=hidden;points=[[0,0.5],[1,0.5]];portConstraint=eastwest;rotatable=0;whiteSpace=wrap;html=1;rounded=1;labelBackgroundColor=none;" vertex="1" parent="l8llONEPsYuGqnBZmxAW-87">
          <mxGeometry y="30" width="260" height="30" as="geometry" />
        </mxCell>
        <mxCell id="l8llONEPsYuGqnBZmxAW-89" value="getScheduleByWeek(WeekResource week)" style="text;strokeColor=none;fillColor=none;align=left;verticalAlign=middle;spacingLeft=4;spacingRight=4;overflow=hidden;points=[[0,0.5],[1,0.5]];portConstraint=eastwest;rotatable=0;whiteSpace=wrap;html=1;rounded=1;labelBackgroundColor=none;" vertex="1" parent="l8llONEPsYuGqnBZmxAW-87">
          <mxGeometry y="60" width="260" height="30" as="geometry" />
        </mxCell>
        <mxCell id="l8llONEPsYuGqnBZmxAW-90" value="getScheduleByMonth(MonthResource month)" style="text;strokeColor=none;fillColor=none;align=left;verticalAlign=middle;spacingLeft=4;spacingRight=4;overflow=hidden;points=[[0,0.5],[1,0.5]];portConstraint=eastwest;rotatable=0;whiteSpace=wrap;html=1;rounded=1;labelBackgroundColor=none;" vertex="1" parent="l8llONEPsYuGqnBZmxAW-87">
          <mxGeometry y="90" width="260" height="30" as="geometry" />
        </mxCell>
        <mxCell id="l8llONEPsYuGqnBZmxAW-91" value="UserTaskService" style="swimlane;fontStyle=0;childLayout=stackLayout;horizontal=1;startSize=30;horizontalStack=0;resizeParent=1;resizeParentMax=0;resizeLast=0;collapsible=1;marginBottom=0;whiteSpace=wrap;html=1;rounded=1;labelBackgroundColor=none;" vertex="1" parent="1">
          <mxGeometry x="800" y="660" width="220" height="120" as="geometry" />
        </mxCell>
        <mxCell id="l8llONEPsYuGqnBZmxAW-92" value="createTask(TaskResource task)" style="text;strokeColor=none;fillColor=none;align=left;verticalAlign=middle;spacingLeft=4;spacingRight=4;overflow=hidden;points=[[0,0.5],[1,0.5]];portConstraint=eastwest;rotatable=0;whiteSpace=wrap;html=1;rounded=1;labelBackgroundColor=none;" vertex="1" parent="l8llONEPsYuGqnBZmxAW-91">
          <mxGeometry y="30" width="220" height="30" as="geometry" />
        </mxCell>
        <mxCell id="l8llONEPsYuGqnBZmxAW-93" value="updateTask(TaskResource task)" style="text;strokeColor=none;fillColor=none;align=left;verticalAlign=middle;spacingLeft=4;spacingRight=4;overflow=hidden;points=[[0,0.5],[1,0.5]];portConstraint=eastwest;rotatable=0;whiteSpace=wrap;html=1;rounded=1;labelBackgroundColor=none;" vertex="1" parent="l8llONEPsYuGqnBZmxAW-91">
          <mxGeometry y="60" width="220" height="30" as="geometry" />
        </mxCell>
        <mxCell id="l8llONEPsYuGqnBZmxAW-94" value="deleteTask(TaskResource task)" style="text;strokeColor=none;fillColor=none;align=left;verticalAlign=middle;spacingLeft=4;spacingRight=4;overflow=hidden;points=[[0,0.5],[1,0.5]];portConstraint=eastwest;rotatable=0;whiteSpace=wrap;html=1;rounded=1;labelBackgroundColor=none;" vertex="1" parent="l8llONEPsYuGqnBZmxAW-91">
          <mxGeometry y="90" width="220" height="30" as="geometry" />
        </mxCell>
        <mxCell id="l8llONEPsYuGqnBZmxAW-95" value="UserScheduleRepository" style="swimlane;fontStyle=0;childLayout=stackLayout;horizontal=1;startSize=30;horizontalStack=0;resizeParent=1;resizeParentMax=0;resizeLast=0;collapsible=1;marginBottom=0;whiteSpace=wrap;html=1;rounded=1;labelBackgroundColor=none;" vertex="1" parent="1">
          <mxGeometry x="520" y="850" width="260" height="120" as="geometry" />
        </mxCell>
        <mxCell id="l8llONEPsYuGqnBZmxAW-96" value="getScheduleByDay(DayResource day)" style="text;strokeColor=none;fillColor=none;align=left;verticalAlign=middle;spacingLeft=4;spacingRight=4;overflow=hidden;points=[[0,0.5],[1,0.5]];portConstraint=eastwest;rotatable=0;whiteSpace=wrap;html=1;rounded=1;labelBackgroundColor=none;" vertex="1" parent="l8llONEPsYuGqnBZmxAW-95">
          <mxGeometry y="30" width="260" height="30" as="geometry" />
        </mxCell>
        <mxCell id="l8llONEPsYuGqnBZmxAW-97" value="getScheduleByWeek(WeekResource week)" style="text;strokeColor=none;fillColor=none;align=left;verticalAlign=middle;spacingLeft=4;spacingRight=4;overflow=hidden;points=[[0,0.5],[1,0.5]];portConstraint=eastwest;rotatable=0;whiteSpace=wrap;html=1;rounded=1;labelBackgroundColor=none;" vertex="1" parent="l8llONEPsYuGqnBZmxAW-95">
          <mxGeometry y="60" width="260" height="30" as="geometry" />
        </mxCell>
        <mxCell id="l8llONEPsYuGqnBZmxAW-98" value="getScheduleByMonth(MonthResource month)" style="text;strokeColor=none;fillColor=none;align=left;verticalAlign=middle;spacingLeft=4;spacingRight=4;overflow=hidden;points=[[0,0.5],[1,0.5]];portConstraint=eastwest;rotatable=0;whiteSpace=wrap;html=1;rounded=1;labelBackgroundColor=none;" vertex="1" parent="l8llONEPsYuGqnBZmxAW-95">
          <mxGeometry y="90" width="260" height="30" as="geometry" />
        </mxCell>
        <mxCell id="l8llONEPsYuGqnBZmxAW-99" value="UserTaskRepository" style="swimlane;fontStyle=0;childLayout=stackLayout;horizontal=1;startSize=30;horizontalStack=0;resizeParent=1;resizeParentMax=0;resizeLast=0;collapsible=1;marginBottom=0;whiteSpace=wrap;html=1;rounded=1;labelBackgroundColor=none;" vertex="1" parent="1">
          <mxGeometry x="790" y="850" width="220" height="120" as="geometry" />
        </mxCell>
        <mxCell id="l8llONEPsYuGqnBZmxAW-100" value="createTask(TaskResource task)" style="text;strokeColor=none;fillColor=none;align=left;verticalAlign=middle;spacingLeft=4;spacingRight=4;overflow=hidden;points=[[0,0.5],[1,0.5]];portConstraint=eastwest;rotatable=0;whiteSpace=wrap;html=1;rounded=1;labelBackgroundColor=none;" vertex="1" parent="l8llONEPsYuGqnBZmxAW-99">
          <mxGeometry y="30" width="220" height="30" as="geometry" />
        </mxCell>
        <mxCell id="l8llONEPsYuGqnBZmxAW-101" value="updateTask(TaskResource task)" style="text;strokeColor=none;fillColor=none;align=left;verticalAlign=middle;spacingLeft=4;spacingRight=4;overflow=hidden;points=[[0,0.5],[1,0.5]];portConstraint=eastwest;rotatable=0;whiteSpace=wrap;html=1;rounded=1;labelBackgroundColor=none;" vertex="1" parent="l8llONEPsYuGqnBZmxAW-99">
          <mxGeometry y="60" width="220" height="30" as="geometry" />
        </mxCell>
        <mxCell id="l8llONEPsYuGqnBZmxAW-102" value="deleteTask(TaskResource task)" style="text;strokeColor=none;fillColor=none;align=left;verticalAlign=middle;spacingLeft=4;spacingRight=4;overflow=hidden;points=[[0,0.5],[1,0.5]];portConstraint=eastwest;rotatable=0;whiteSpace=wrap;html=1;rounded=1;labelBackgroundColor=none;" vertex="1" parent="l8llONEPsYuGqnBZmxAW-99">
          <mxGeometry y="90" width="220" height="30" as="geometry" />
        </mxCell>
        <mxCell id="l8llONEPsYuGqnBZmxAW-104" style="edgeStyle=orthogonalEdgeStyle;rounded=0;orthogonalLoop=1;jettySize=auto;html=1;" edge="1" parent="1" source="l8llONEPsYuGqnBZmxAW-87">
          <mxGeometry relative="1" as="geometry">
            <mxPoint x="660" y="850" as="targetPoint" />
          </mxGeometry>
        </mxCell>
        <mxCell id="l8llONEPsYuGqnBZmxAW-105" style="edgeStyle=orthogonalEdgeStyle;rounded=0;orthogonalLoop=1;jettySize=auto;html=1;entryX=0.532;entryY=0.008;entryDx=0;entryDy=0;entryPerimeter=0;" edge="1" parent="1" source="l8llONEPsYuGqnBZmxAW-37" target="l8llONEPsYuGqnBZmxAW-91">
          <mxGeometry relative="1" as="geometry" />
        </mxCell>
        <mxCell id="l8llONEPsYuGqnBZmxAW-106" style="edgeStyle=orthogonalEdgeStyle;rounded=0;orthogonalLoop=1;jettySize=auto;html=1;entryX=0.545;entryY=0.008;entryDx=0;entryDy=0;entryPerimeter=0;" edge="1" parent="1" source="l8llONEPsYuGqnBZmxAW-91" target="l8llONEPsYuGqnBZmxAW-99">
          <mxGeometry relative="1" as="geometry" />
        </mxCell>
      </root>
    </mxGraphModel>
  </diagram>
</mxfile>
